<svg xmlns="http://www.w3.org/2000/svg" viewBox="0 0 128 128" width="128" height="128" aria-hidden="true">
  <defs>
    <linearGradient id="g1" x1="0" x2="1" y1="0" y2="1">
      <stop offset="0%" stop-color="#ef4444"/>
      <stop offset="100%" stop-color="#f59e0b"/>
    </linearGradient>
    <linearGradient id="g2" x1="0" x2="1" y1="1" y2="0">
      <stop offset="0%" stop-color="#22c55e"/>
      <stop offset="100%" stop-color="#16a34a"/>
    </linearGradient>
    <linearGradient id="g3" x1="1" x2="0" y1="1" y2="0">
      <stop offset="0%" stop-color="#60a5fa"/>
      <stop offset="100%" stop-color="#3b82f6"/>
    </linearGradient>
    <linearGradient id="g4" x1="1" x2="0" y1="0" y2="1">
      <stop offset="0%" stop-color="#f472b6"/>
      <stop offset="100%" stop-color="#ec4899"/>
    </linearGradient>
  </defs>
  <g transform="translate(64,64)">
    <path d="M0-42 A42 42 0 0 1 36 0 L14 0 A14 14 0 0 0 0-14Z" fill="url(#g1)"/>
    <path d="M36 0 A42 42 0 0 1 0 42 L0 14 A14 14 0 0 0 14 0Z" fill="url(#g2)"/>
    <path d="M0 42 A42 42 0 0 1 -36 0 L-14 0 A14 14 0 0 0 0 14Z" fill="url(#g3)"/>
    <path d="M-36 0 A42 42 0 0 1 0 -42 L0 -14 A14 14 0 0 0 -14 0Z" fill="url(#g4)"/>
  </g>
</svg>

